<?xml version="1.0" encoding="UTF-8"?>
<svg xmlns="http://www.w3.org/2000/svg" version="1.1" xmlns:xlink="http://www.w3.org/1999/xlink" viewBox="0 0 240.4 206.8">
  <defs>
    <style>
      .cls-1 {
        filter: url(#drop-shadow-2);
      }

      .cls-2 {
        fill: #fff;
      }

      .cls-3 {
        filter: url(#drop-shadow-1);
      }

      .cls-4 {
        filter: url(#drop-shadow-3);
      }
    </style>
    <filter id="drop-shadow-1" filterUnits="userSpaceOnUse">
      <feOffset dx="2.8" dy="2.8"/>
      <feGaussianBlur result="blur" stdDeviation="2.8"/>
      <feFlood flood-color="#231f20" flood-opacity=".8"/>
      <feComposite in2="blur" operator="in"/>
      <feComposite in="SourceGraphic"/>
    </filter>
    <filter id="drop-shadow-2" filterUnits="userSpaceOnUse">
      <feOffset dx="2.8" dy="2.8"/>
      <feGaussianBlur result="blur-2" stdDeviation="2.8"/>
      <feFlood flood-color="#231f20" flood-opacity=".8"/>
      <feComposite in2="blur-2" operator="in"/>
      <feComposite in="SourceGraphic"/>
    </filter>
    <filter id="drop-shadow-3" filterUnits="userSpaceOnUse">
      <feOffset dx="2.8" dy="2.8"/>
      <feGaussianBlur result="blur-3" stdDeviation="2.8"/>
      <feFlood flood-color="#231f20" flood-opacity=".8"/>
      <feComposite in2="blur-3" operator="in"/>
      <feComposite in="SourceGraphic"/>
    </filter>
  </defs>
  <!-- Generator: Adobe Illustrator 28.6.0, SVG Export Plug-In . SVG Version: 1.2.0 Build 709)  -->
  <g>
    <g id="Layer_1">
      <g class="cls-3">
        <path class="cls-2" d="M30.9,182.8c.7-.2,1.2-.7,1.7-1.2,4.4-3.6,8.9-7.2,13.3-10.7,1.6-1.3,3.2-2.5,4.8-3.9.7-.6,1.2-.6,2,0,5.5,3.8,11.1,7.6,16.6,11.3,1.5,1,1.6,1,.4,2.3-2.4,2.4-4.8,4.7-7.1,7.2-2.1,2.2-4.1,4.5-6.1,6.8-.6.7-.5.8.4,1,3.1.6,6.1,1.1,9.2,1.6.7.1,1.1-.3,1.5-.7,2.3-2.7,4.7-5.3,7.1-7.8,3.3-3.4,6.8-6.7,10.2-10.1,3.9-3.9,8.4-7.2,12.8-10.6,3-2.4,6.2-4.3,9.7-5.7,2.2-.9,4.4-1.6,6.7-2,1.2-.2,1.2-.2,1.5,1,.8,4,1.3,8.1,2.6,12.1,1.8,5.8,5.4,9.9,10.6,12.8.5.3.8.6,1.1,1.1.4.7.7,1.5,1.1,2.2,2,3.2,6,4.3,9.6,2.9,3.5-1.3,6.1-3.7,8.4-6.5,1.6-2.1,3.4-3.9,5.3-5.8,1.2-1.1,1.6-2.6,2-4.1.2-.6-.1-.8-.7-.7-1.4.2-2.3,1-3.3,1.9-1.2,1.2-.9,1.3-2.4.2-.5-.3-1-.7-1.5-1-.4-.2-.5-.5-.2-.9.5-.5,1.1-1,1.6-1.5.3-.3.7-.3,1.1-.1.3.2.7.3,1,.5.8.6,1.5.4,2.2-.3.8-.7.8-.9,0-1.4q-1.6-1-.2-2.2c1-.9,2.1-1.7,2.3-3.2,0-.3.3-.6,0-.8-.3-.3-.6,0-.9,0-1,.5-1.9,1-2.8,1.6-4.3,2.9-8.2,6.5-11.9,10.2-1.3,1.3-2.8,2.4-4.3,3.5-1.3.8-2.7,1.1-4.2,1.2-.5,0-.7-.3-.9-.7-.9-2.1-1.5-4.3-1.9-6.6-.7-4.2-1.6-8.3-2.8-12.4-.1-.5-.4-.8-.7-1.1-6.1-5.4-12.4-10.6-19-15.4-1.3-1-2.8-1.3-4.3-1.5-8.9-1.7-17.8-2-26.6,1-6.7,2.3-13.1,5.2-19.4,8.4-6.9,3.6-13.4,7.6-19.8,11.9-1.7,1.1-3.7,2-3.8,4.5l-1.9,11.6ZM83.5,149.6c.4.3.8.6,1.2.9,4.2,3,8.3,6.1,12.5,9.1,1.1.8,1,.8-.1,1.4-3.3,1.6-6.6,3.3-9.6,5.3-3.4,2.2-6.6,4.5-9.7,7.1-.6.5-1,.6-1.7,0-1-.8-2.1-1.5-3.2-2.2-4.3-2.9-8.7-5.9-13-8.8-.6-.4-.8-.6,0-1.1,2.3-1.3,4.5-2.6,6.8-3.8,5.3-2.9,10.7-5.5,16.2-7.8.2,0,.4-.1.6-.2ZM88.8,148.3c4.3-.7,8.3-.9,12.3.1.9.2,1.9.4,2.7,1.1,2.6,2.1,5.2,4.3,7.8,6.4.2.1.5.3.4.6,0,.2-.4.2-.6.2-2.6.3-5.2.9-7.7,1.8-.6.2-1.1.1-1.6-.3-3.1-2.3-6.2-4.5-9.3-6.8-1.3-.9-2.6-1.8-4-3.1ZM124.5,171.1c-1.3-.9-2.5-1.9-3.8-2.8-.5-.3-.8-.8-.9-1.4-.3-1.5-.6-3.1-.9-4.6,0-.4-.3-.8,0-1.3.9.7,1.7,1.3,2.5,2,.6.5,1.3,1,1.6,1.8.7,2,1.2,4,1.5,6.2ZM142.4,181.3c0,0,0-.2.2-.2.8-.7,1.6-1.5,2.4-2.2.2-.2.5-.2.7,0,.8.6,1.7,1.1,2.5,1.7.3.2.4.5.1.8-.8.9-1.7,1.9-2.5,2.8-.4.4-.7.3-1,0-.7-.7-1.4-1.5-2.1-2.2-.1-.2-.3-.3-.3-.6ZM138.4,188.8c-.2,0-.4-.1-.5-.2-.8-.8-1.5-1.7-2.2-2.5-.2-.3,0-.4.2-.5,1-.3,1.8-.8,2.7-1.4.4-.3.7-.2,1,0,.7.8,1.5,1.6,2.3,2.4.4.4.3.7-.1,1-1,.8-2.2.8-3.3,1.1ZM67.9,188c.5.3,1,.6,1.6,1,.5.3.4.6,0,1-.9.9-1.8,1.7-2.6,2.6-.3.3-.6.3-.9.1-.6-.3-1.2-.6-1.7-.9-.4-.2-.5-.4-.1-.8,1-.9,2-1.8,3-2.7.2-.2.4-.3.8-.2ZM126.8,180.6c-2.8-1.7-5.4-5.6-5.2-7.5,1.3,1.1,2.6,2.1,3.8,3.1.2.2.3.4.4.6.3,1.2.6,2.4,1,3.8ZM39.3,169.5c.4.3.9.6,1.4.9.4.3.4.5,0,.8-.6.4-1.2.8-1.8,1.3q-1.6,1.2-3.2,0c0,0-.1,0-.2,0-.5-.3-.4-.5,0-.8,1-.7,2-1.4,3.1-2,.2-.1.3-.2.7,0ZM75.7,180.4c.3.2.7.5,1.1.8.5.3.6.7.1,1.1-.7.7-1.4,1.3-2.1,2-.2.2-.5.4-.8.1-.5-.3-1-.6-1.5-.9-.3-.2-.4-.4,0-.7.9-.8,1.7-1.5,2.6-2.3.2-.1.3-.3.7-.1ZM45.3,165c.2-.2.2-.2.3-.3.9-.6,1.9-1.3,2.8-1.9.4-.2,1.9.4,2.1.9,0,.2,0,.3-.2.5-1,.7-1.9,1.4-2.9,2.1-.3.2-.5.2-.8,0-.4-.4-.9-.8-1.4-1.2ZM83.5,173.5c.4.3.8.5,1.1.8.2.1.2.3,0,.5-.9.7-1.7,1.4-2.6,2-.6.4-1-.4-1.4-.6-.2-.1-.4-.3-.2-.5.9-.7,1.7-1.4,2.6-2.1,0,0,.2,0,.4,0ZM55.4,159.1c0,0,.1-.1.2-.2,1-.5,2-1.1,3-1.5.7-.3,1.1.4,1.6.8.2.1,0,.3-.1.4-.9.5-1.9,1-2.8,1.5-.4.2-1.9-.6-1.9-1ZM90,168.5c.4.2,1,.4,1.2.9.1.5-.4.6-.7.9-.3.3-.6.5-1,.7-.6.4-1.8.2-2.2-.7-.4-.7.5-.6.8-.9.3-.3.8-.5,1.2-.8.2-.1.4-.2.8-.2ZM67.9,152.9c.4.1.8.4.9.8.1.5-.4.5-.7.6-.7.3-1.4.6-2.2.9-.4.2-1.7-.3-1.7-.7,0-.6.6-.5.9-.7.4-.2.9-.4,1.3-.5.4-.2.8-.4,1.3-.4ZM95.9,164.5c.4.2,1,.3,1.2.8.2.5-.6.5-.8.9,0,0,0,0,0,0-.8.6-1.6.5-2.3-.2,0,0-.2-.2-.1-.3,0-.2,1.8-1.2,2.1-1.1ZM75.1,149.7c.2,0,.5.2.6.5,0,.1,0,.2-.1.3-.8.4-1.6.8-2.5,1.1-.3.1-.6-.2-.8-.4-.1-.1-.2-.3,0-.4.1-.2,2.5-1.2,2.8-1.1ZM101.5,161.4c.2.2,1,.2.6.7-.5.5-1.3,1-2.1,1-.4,0-.9-.1-.8-.7,0-.3,2-1.1,2.3-1Z"/>
        <path class="cls-2" d="M186.4,132.7c-2.8,0-5.5.7-8.1,1.8-4.1,1.8-7.4,4.6-10.3,7.9-4.7,5.5-7.7,11.8-9.4,18.8-1.4,5.7-1.8,11.4-1,17.1.8,5.6,2.6,10.8,6.4,15.2,4.3,5,9.7,7.3,16.4,6.3,5.4-.8,9.7-3.6,13.5-7.4,5-5,8.3-11,10.4-17.7.2-.6.4-1.2.7-1.9.5-3.1,1-6.2,1.6-9.3,0-.2,0-.5,0-.7.1-3.6,0-7.2-.8-10.8-1.1-5.1-3.1-9.7-6.6-13.6-2.1-2.3-4.6-3.7-7.4-4.9l-5.2-.9ZM168.5,152.5c.8-4.3,2.1-7.2,5-9,2.5-1.6,5.5-.8,7,1.8,2.5,4.4,1,11.3-3.2,14.6-3,2.3-6.7,1.3-8.1-2.2-.8-2-1-4-.7-5.1ZM160.7,172.8c.8-2.9,1.8-5.7,4.4-7.6,3.1-2.2,6.4-1.2,8,2.2,1.7,3.9.5,11.4-4.5,14.3-2,1.2-4.6.7-6.1-1.1-1.9-2.4-1.9-5.1-1.7-7.9ZM185,146.7c.3-2.3,1.3-4.3,2.8-6.1,2.6-3,6.8-2.4,8.2,1.1,1.6,3.9.3,9.5-2.9,12.2-2.8,2.4-6.4,1.7-7.7-1.8-.6-1.8-.8-3.5-.4-5.3ZM171.1,186.2c.4-2.1,1.5-4.4,3.5-6,2.5-2.1,5.5-1.6,7,1.3.8,1.5,1,3,.9,4.7-.3,3.4-1.5,6.4-4.4,8.3-2.1,1.4-4.9.7-6.1-1.5-1.1-2-1.3-4.2-.9-6.8ZM202.5,163.5c-.4,2-1.4,4.2-3.3,5.9-2,1.8-4.4,1.3-5.5-1.1-1.7-3.7-.6-9.6,2.4-12.3,2.5-2.3,5.2-1.6,6.3,1.7.6,1.8.5,3.6.2,5.9ZM196.2,180.7c-.3,2.6-1.4,4.8-3.4,6.4-1.9,1.5-4.3,1-5.4-1.2-1.9-3.7-.4-8.9,2-11.3,1.1-1.1,2.5-1.9,4.2-1.3,1.6.5,2.2,1.9,2.6,3.4.3,1.4.4,2.8,0,4.1ZM182.2,167.2c.1-1.1.5-2.1,1.5-2.7.8-.4,1.5-.2,1.9.6.7,1.4.1,4.1-1.1,5.2-.9.8-1.9.5-2.3-.6-.3-.8-.2-1.5,0-2.4ZM178.1,168.7c.1-.6.3-1.3,1.1-1.1.6.1.7.8.6,1.3-.1.6-.3,1.3-1,1.3-.8,0-.7-.8-.6-1.5ZM187.8,165.6c.2-.6.3-1.5,1.1-1.3.7.2.5,1,.4,1.6,0,.2-.2.5-.3.7-.2.3-.4.5-.8.4-.4,0-.4-.4-.4-.8,0-.2,0-.4,0-.7ZM182,162.6c0,.3-.1.5-.2.7-.1.4-.4.7-.8.6-.5,0-.5-.5-.5-.9,0-.6.1-1.1.5-1.6.4-.4.8-.3,1,.2,0,.3,0,.6,0,.8ZM186.9,160.8c-.2.5-.2,1.4-1,1.2-.7-.2-.5-1-.4-1.5.1-.5.3-1.1,1-1,.7.1.5.8.4,1.3ZM181.1,173.6c.2-.6.3-1.4,1.1-1.2.7.2.5.9.4,1.4,0,.3-.2.5-.3.8-.1.2-.4.4-.7.4-.3,0-.4-.3-.4-.6,0-.3,0-.6,0-.8ZM185.9,171.4c.2-.6.3-1.3,1-1.1.7.1.5.9.4,1.4-.1.5-.3,1.3-1,1.1-.7-.1-.4-.9-.5-1.4Z"/>
        <path class="cls-2" d="M149.3,163.3c-.1,1.2-.2,2.8-.4,4.3,0,.6.1.8.7.4,1.1-.7,2.2-1.3,3.5-1.7.3,0,.5-.2.6-.6.3-2.1,1.4-3.8,2-5.8,1.4-5.2,3.7-9.9,6.7-14.3,2.7-3.9,5.9-7.4,9.3-10.6.1-.1.3-.2.4-.4.1-.2.4-.3.3-.5-.2-.2-.4,0-.6,0-1.9.5-3.7,1.3-5.5,2.3-6,3.3-10.3,8.3-13.2,14.5-1.8,3.8-2.8,7.9-3.8,12.3Z"/>
        <path class="cls-2" d="M160.1,195.5c-.5-1.1-1.1-2-1.5-3.1-1.2-3-2.4-6.1-3.5-9.1-.3-.9-.5-.9-1.1-.3-.6.7-1.2,1.3-1.9,2-.3.3-.4.7-.2,1.1,1.7,3.7,4.1,6.8,7.4,9.2.2.1.4.3.8.2Z"/>
      </g>
      <g class="cls-1">
        <path class="cls-2" d="M64.4,14.6l9-1.1c6-.8,10.1-1,12.2-.8s4,1.2,5.6,2.9,2.6,4.7,3.1,8.8c.5,3.8.3,6.4-.4,7.8-.8,1.4-2.5,2.4-5.3,3.1,2.6.3,4.4.9,5.4,1.9,1,.9,1.7,1.8,2,2.7.3.8.7,3.2,1.2,7.2l1.6,12.8-11.8,1.5-2-16.2c-.3-2.6-.7-4.2-1.2-4.8s-1.6-.7-3.4-.5l2.8,22-12.7,1.6-6.2-48.7ZM78.1,21.3l1.4,10.8c1.4-.2,2.4-.5,2.9-1s.6-1.8.4-3.9l-.3-2.7c-.2-1.5-.6-2.5-1.2-2.9s-1.7-.5-3.1-.3Z"/>
        <path class="cls-2" d="M101.4,10.5l21.3-.5.2,9.8-8.5.2.2,9.3,8-.2.2,9.3-8,.2.3,10.8,9.4-.2.2,9.8-22.1.6-1.2-49.1Z"/>
        <path class="cls-2" d="M130.5,10.2l21.2,1.3-.6,9.8-8.5-.5-.6,9.3,8,.5-.6,9.3-8-.5-.7,10.8,9.4.6-.6,9.8-22.1-1.4,3-49Z"/>
        <path class="cls-2" d="M172.1,14.2l-5.7,38.9,7.7,1.1-1.4,9.7-20.3-3,7.1-48.6,12.6,1.9Z"/>
      </g>
      <g class="cls-4">
        <path class="cls-2" d="M4.9,90.5l8.6-2.7c5.7-1.8,9.7-2.8,11.9-3s4.2.4,6,1.8,3.4,4.1,4.7,8.1c1.1,3.6,1.5,6.2.9,7.8-.5,1.5-2.1,2.8-4.6,3.9,2.6-.2,4.5.1,5.6.9,1.1.7,1.9,1.5,2.4,2.3.5.8,1.3,3.1,2.5,6.8l3.9,12.4-11.3,3.5-4.9-15.6c-.8-2.5-1.5-4-2.1-4.5-.6-.5-1.7-.4-3.4,0l6.6,21.1-12.2,3.8-14.7-46.8ZM19.6,94.7l3.3,10.4c1.4-.4,2.3-.9,2.7-1.5s.3-1.9-.3-3.9l-.8-2.6c-.5-1.5-1-2.4-1.7-2.7-.7-.3-1.7-.2-3.1.2Z"/>
        <path class="cls-2" d="M40.4,79.9l20.8-4.4,2,9.6-8.3,1.8,1.9,9.1,7.8-1.7,1.9,9.1-7.8,1.7,2.3,10.6,9.2-2,2,9.6-21.6,4.6-10.2-48Z"/>
        <path class="cls-2" d="M99.5,70.6l-1,49.5-19.3,2.2-12.8-48,13.4-1.5c3.1,13.3,5.5,24.5,7.2,33.7-.4-9.5-.7-17.9-.7-25.3v-9.2c-.1,0,13.2-1.5,13.2-1.5Z"/>
        <path class="cls-2" d="M117.7,70.4l1.3,49.1-12.8.3-1.3-49.1,12.8-.3Z"/>
        <path class="cls-2" d="M125.6,70.3l21.3,1-.5,9.8-8.5-.4-.4,9.3,8,.4-.4,9.3-8-.4-.5,10.8,9.4.4-.5,9.8-22.1-1,2.3-49Z"/>
        <path class="cls-2" d="M203.7,80l-14.2,47.3-15.7-2.8c-.1-7.7.1-16.4.7-26-1.2,4-3.9,12.2-8,24.7l-15.6-2.8,3-49.3,12.2,2.2-1.7,17.1-1.6,16.5c2-8.4,5.1-19.2,9.4-32.5l13.1,2.3c0,1.4-.6,6.8-1.5,16.2l-1.9,18.6c2.8-11.6,6-22.8,9.6-33.7l12.2,2.2Z"/>
        <path class="cls-2" d="M232.1,105l-11.3-3.6,1.1-3.5c.5-1.6.7-2.7.6-3.2-.1-.5-.6-.9-1.2-1.1-.7-.2-1.4-.1-1.9.4s-1,1.3-1.4,2.5c-.5,1.6-.7,2.8-.5,3.7.2.9,1,2.2,2.5,4,4.4,4.9,7,8.7,7.7,11.2.7,2.5.4,6.1-1.1,10.6-1.1,3.3-2.2,5.7-3.5,7-1.3,1.3-3.2,2.2-5.8,2.5-2.6.4-5.3,0-8.3-.9-3.3-1-5.8-2.5-7.7-4.5-1.9-2-2.9-4-3-6.2-.1-2.1.4-5,1.5-8.5l1-3.1,11.3,3.6-1.8,5.7c-.6,1.8-.8,2.9-.6,3.5.2.6.6,1,1.5,1.3.8.3,1.5.1,2.1-.4.6-.5,1.1-1.4,1.5-2.6.9-2.8,1.1-4.7.6-5.8-.5-1.1-1.9-3.1-4.3-6.1-2.4-3-3.9-5.1-4.6-6.3s-1.1-2.7-1.2-4.5c-.1-1.8.2-3.9,1-6.4,1.1-3.6,2.4-6.1,3.9-7.4s3.3-2.2,5.7-2.5c2.3-.3,5,0,7.8,1,3.2,1,5.7,2.4,7.6,4.1,1.9,1.7,3,3.5,3.2,5.3.2,1.8-.3,4.5-1.4,8.2l-.6,1.8Z"/>
      </g>
    </g>
  </g>
</svg>